# This file uses centimeters as units for non-parametric coordinates.

v -1.066890 -0.644729 0.581580
v 0.969685 -0.462364 0.592826
v -1.066890 0.760103 0.581580
v 0.969685 0.577738 0.592826
v -1.066890 0.760103 -0.520163
v 0.969685 0.577738 -0.531409
v -1.066890 -0.644729 -0.520163
v 0.969685 -0.462364 -0.531409
v 0.969685 -0.285734 -0.312713
v 0.969685 -0.285734 0.374130
v 0.969685 0.401108 -0.312713
v 0.969685 0.401108 0.374130
v 1.339236 -0.285734 -0.312713
v 1.339236 -0.285734 0.374130
v 1.339236 0.401108 -0.312713
v 1.339236 0.401108 0.374130
v 1.544684 -0.411917 -0.438895
v 1.544684 -0.411917 0.500312
v 1.544684 0.527291 -0.438895
v 1.544684 0.527291 0.500312
v -1.066890 0.760103 -0.274713
v 0.969685 0.577738 -0.280948
v 0.969685 0.401108 -0.118617
v 1.339236 0.401108 -0.118617
v 1.544684 0.527291 -0.173483
v 1.544684 -0.411917 -0.173483
v 1.339236 -0.285734 -0.118617
v 0.969685 -0.285734 -0.118617
v 0.969685 -0.462364 -0.280948
v -1.066890 -0.644729 -0.274713
v -1.066890 0.760103 0.195226
v 0.969685 0.577738 0.198585
v 0.969685 0.401108 0.111144
v 1.339236 0.401108 0.111144
v 1.544684 0.527291 0.140698
v 1.544684 -0.411917 0.140698
v 1.339236 -0.285734 0.111144
v 0.969685 -0.285734 0.111144
v 0.969685 -0.462364 0.198585
v -1.066890 -0.644729 0.195226
v -0.736374 -0.647056 0.583405
v -0.736374 -0.647056 0.195771
v -0.736374 -0.647056 -0.275725
v -0.736374 -0.647056 -0.521988
v -0.736374 0.762430 -0.521988
v -0.636378 0.762430 -0.275725
v -0.636378 0.762430 0.195771
v -0.736374 0.762430 0.583405
v -0.399876 -0.560822 -0.210421
v -0.399876 -0.560822 0.196326
v -0.399876 -0.560822 0.585263
v -0.399876 0.676196 0.585263
v -0.399876 0.676196 0.196326
v -0.399876 0.676196 -0.276755
v -0.399876 0.676196 -0.523846
v -0.399876 -0.560822 -0.523846
v 0.439693 -0.565992 -0.212437
v 0.439693 -0.565992 0.197711
v 0.439693 -0.565992 0.589899
v 0.439693 0.681366 0.589899
v 0.529802 0.681366 0.197711
v 0.529802 0.681366 -0.279326
v 0.439693 0.681366 -0.528482
v 0.439693 -0.565992 -0.528482
v 0.723425 -0.461106 -0.280194
v 0.723425 -0.461106 0.198179
v 0.723425 -0.461106 0.591466
v 0.723425 0.576480 0.591466
v 0.723425 0.576480 0.198179
v 0.723425 0.576480 -0.280194
v 0.723425 0.576480 -0.530049
v 0.723425 -0.461106 -0.530049
v -0.453016 1.228403 -0.275725
v -0.453016 1.228403 0.195771
v -0.341126 1.123979 0.196326
v -0.341126 1.123979 -0.276755
v 0.655511 1.235890 -0.213702
v 0.661638 1.235890 0.131687
v 0.545416 1.085800 0.129226
v 0.544265 1.085800 -0.213075
v 1.682625 0.527291 -0.173483
v 1.682625 -0.411917 -0.173483
v 1.682625 -0.411917 -0.438895
v 1.682625 0.527291 -0.438895
v 1.682625 0.527291 0.140698
v 1.682625 -0.411917 0.140698
v 1.682625 -0.411917 0.500312
v 1.682625 0.527291 0.500312
vt 0.375000 0.000000
vt 0.625000 0.000000
vt 0.375000 0.250000
vt 0.625000 0.250000
vt 0.375000 0.500000
vt 0.625000 0.500000
vt 0.375000 0.750000
vt 0.625000 0.750000
vt 0.375000 1.000000
vt 0.625000 1.000000
vt 0.875000 0.000000
vt 0.875000 0.250000
vt 0.125000 0.000000
vt 0.125000 0.250000
vt 0.625000 0.000000
vt 0.875000 0.000000
vt 0.875000 0.250000
vt 0.625000 0.250000
vt 0.625000 0.000000
vt 0.875000 0.000000
vt 0.875000 0.250000
vt 0.625000 0.250000
vt 0.625000 0.000000
vt 0.875000 0.000000
vt 0.875000 0.250000
vt 0.625000 0.250000
vt 0.195648 0.250000
vt 0.375000 0.429352
vt 0.625000 0.429352
vt 0.804352 0.250000
vt 0.804352 0.250000
vt 0.804352 0.250000
vt 0.804352 0.250000
vt 0.804352 0.000000
vt 0.804352 0.000000
vt 0.804352 0.000000
vt 0.625000 0.820648
vt 0.804352 0.000000
vt 0.195648 0.000000
vt 0.375000 0.820648
vt 0.279277 0.250000
vt 0.375000 0.345723
vt 0.625000 0.345723
vt 0.720723 0.250000
vt 0.720723 0.250000
vt 0.720723 0.250000
vt 0.720723 0.250000
vt 0.720723 0.000000
vt 0.720723 0.000000
vt 0.720723 0.000000
vt 0.625000 0.904277
vt 0.720723 0.000000
vt 0.279277 0.000000
vt 0.375000 0.904277
vt 0.415573 0.000000
vt 0.415573 1.000000
vt 0.415573 0.904277
vt 0.415573 0.820648
vt 0.415573 0.750000
vt 0.415573 0.500000
vt 0.415573 0.429352
vt 0.415573 0.345723
vt 0.415573 0.250000
vt 0.456879 0.820648
vt 0.456879 0.904277
vt 0.456879 0.000000
vt 0.456879 1.000000
vt 0.456879 0.250000
vt 0.456879 0.345723
vt 0.456879 0.429352
vt 0.456879 0.500000
vt 0.456879 0.750000
vt 0.559941 0.820648
vt 0.559941 0.904277
vt 0.559941 0.000000
vt 0.559941 1.000000
vt 0.559941 0.250000
vt 0.559941 0.345723
vt 0.559941 0.429352
vt 0.559941 0.500000
vt 0.559941 0.750000
vt 0.594770 0.820648
vt 0.594770 0.904277
vt 0.594770 0.000000
vt 0.594770 1.000000
vt 0.594770 0.250000
vt 0.594770 0.345723
vt 0.594770 0.429352
vt 0.594770 0.500000
vt 0.594770 0.750000
vt 0.415573 0.429352
vt 0.415573 0.345723
vt 0.456879 0.345723
vt 0.456879 0.429352
vt 0.415573 0.429352
vt 0.415573 0.345723
vt 0.456879 0.345723
vt 0.456879 0.429352
vt 0.559941 0.429352
vt 0.559941 0.345723
vt 0.594770 0.345723
vt 0.594770 0.429352
vt 0.804352 0.000000
vt 0.875000 0.000000
vt 0.875000 0.250000
vt 0.804352 0.250000
vt 0.720723 0.000000
vt 0.720723 0.250000
vt 0.625000 0.000000
vt 0.625000 0.250000
vn -0.005521 0.000000 0.999985
vn -0.005522 0.000000 0.999985
vn -0.005522 0.000000 0.999985
vn -0.005522 0.000000 0.999985
vn 0.083604 0.995903 -0.034453
vn 0.065958 0.997685 -0.016570
vn 0.071493 0.997324 -0.015274
vn 0.024758 0.999694 0.000120
vn -0.005521 0.000000 -0.999985
vn -0.005522 0.000000 -0.999985
vn -0.005522 0.000000 -0.999985
vn -0.005522 0.000000 -0.999985
vn 0.125257 -0.992124 0.000000
vn 0.063721 -0.997968 0.000000
vn 0.125578 -0.992084 0.000000
vn 0.072605 -0.997361 0.000000
vn 1.000000 0.000000 0.000000
vn 1.000000 0.000000 0.000000
vn 1.000000 0.000000 0.000000
vn 1.000000 0.000000 0.000000
vn -1.000000 0.000000 0.000000
vn -1.000000 0.000000 0.000000
vn -1.000000 0.000000 0.000000
vn -1.000000 0.000000 0.000000
vn 1.000000 -0.000000 0.000000
vn 1.000000 0.000000 0.000000
vn 1.000000 0.000000 0.000000
vn 1.000000 0.000000 0.000000
vn 1.000000 0.000000 0.000000
vn 1.000000 0.000000 0.000000
vn 1.000000 0.000000 0.000000
vn 1.000000 0.000000 0.000000
vn 1.000000 0.000000 0.000000
vn 1.000000 0.000000 0.000000
vn 1.000000 0.000000 0.000000
vn 1.000000 0.000000 0.000000
vn 1.000000 0.000000 0.000000
vn 1.000000 0.000000 0.000000
vn 1.000000 0.000000 0.000000
vn 1.000000 0.000000 0.000000
vn 0.000000 -1.000000 0.000000
vn 0.000000 -1.000000 0.000000
vn 0.000000 -1.000000 0.000000
vn 0.000000 -1.000000 0.000000
vn 0.000000 0.000000 -1.000000
vn 0.000000 0.000000 -1.000000
vn 0.000000 0.000000 -1.000000
vn 0.000000 0.000000 -1.000000
vn 0.000000 1.000000 0.000000
vn 0.000000 1.000000 0.000000
vn 0.000000 1.000000 0.000000
vn 0.000000 1.000000 0.000000
vn 0.000000 0.000000 1.000000
vn 0.000000 0.000000 1.000000
vn 0.000000 0.000000 1.000000
vn 0.000000 0.000000 1.000000
vn -0.523353 -0.852116 0.000000
vn -0.523354 -0.852116 0.000000
vn -0.523353 -0.852116 0.000000
vn -0.523354 -0.852116 0.000000
vn -0.523353 0.000000 -0.852116
vn -0.523353 0.000000 -0.852116
vn -0.523353 0.000000 -0.852116
vn -0.523353 0.000000 -0.852116
vn -0.523353 0.852116 0.000000
vn -0.523353 0.852116 0.000000
vn -0.523353 0.852116 0.000000
vn -0.523353 0.852116 0.000000
vn -0.523353 0.000000 0.852116
vn -0.523353 0.000000 0.852116
vn -0.523353 0.000000 0.852116
vn -0.523353 0.000000 0.852116
vn 1.000000 0.000000 0.000000
vn 1.000000 0.000000 0.000000
vn 0.000000 1.000000 0.000000
vn 0.000000 1.000000 0.000000
vn -0.523353 0.852116 0.000000
vn -0.523353 0.852116 0.000000
vn 1.000000 0.000000 0.000000
vn 1.000000 0.000000 0.000000
vn -0.523353 -0.852116 0.000000
vn -0.523353 -0.852116 0.000000
vn 0.000000 -1.000000 0.000000
vn 0.000000 -1.000000 0.000000
vn 1.000000 -0.000000 0.000000
vn 1.000000 -0.000000 0.000000
vn 0.122223 -0.992503 0.000000
vn 0.068716 -0.997636 0.000000
vn -1.000000 0.000000 0.000000
vn -1.000000 0.000000 0.000000
vn 0.096171 0.995044 0.025256
vn 0.070545 0.997433 0.012268
vn 0.078124 0.996902 0.009100
vn 0.033489 0.999439 -0.000149
vn 1.000000 0.000000 0.000000
vn 1.000000 0.000000 0.000000
vn 0.000000 1.000000 0.000000
vn 0.000000 1.000000 0.000000
vn -0.523353 0.852116 0.000000
vn -0.523353 0.852116 0.000000
vn 1.000000 0.000000 0.000000
vn 1.000000 0.000000 0.000000
vn -0.523353 -0.852116 0.000000
vn -0.523353 -0.852116 0.000000
vn 0.000000 -1.000000 0.000000
vn 0.000000 -1.000000 0.000000
vn 1.000000 0.000000 0.000000
vn 1.000000 0.000000 0.000000
vn 0.125373 -0.992110 0.000000
vn 0.068274 -0.997667 0.000000
vn -1.000000 0.000000 0.000000
vn -1.000000 0.000000 0.000000
vn -0.007040 -0.999975 0.000000
vn -0.007040 -0.999975 0.000000
vn -0.007040 -0.999975 0.000000
vn -0.007040 -0.999975 0.000000
vn -0.005522 0.000000 -0.999985
vn -0.005521 0.000000 -0.999985
vn -0.005671 0.999984 0.000322
vn -0.007040 0.999975 0.000000
vn -0.005671 0.999984 -0.000364
vn -0.007040 0.999975 0.000000
vn -0.005522 0.000000 0.999985
vn -0.005521 0.000000 0.999985
vn 0.088590 -0.996068 0.000000
vn 0.094484 -0.995526 0.000000
vn 0.089016 -0.996030 0.000000
vn -0.005522 0.000000 0.999985
vn -0.005522 0.000000 0.999985
vn 0.066403 0.997672 0.015510
vn 0.049378 0.998770 0.004556
vn 0.040010 0.999164 -0.008424
vn 0.057484 0.998125 -0.021041
vn -0.005522 0.000000 -0.999985
vn -0.005522 0.000000 -0.999985
vn 0.082267 -0.996610 0.000000
vn 0.187596 -0.982246 0.000000
vn 0.192488 -0.981299 0.000000
vn 0.191156 -0.981560 0.000000
vn -0.005522 0.000000 0.999985
vn -0.005523 0.000000 0.999985
vn 0.201828 0.978909 0.031677
vn 0.136910 0.990584 0.000000
vn 0.206747 0.977536 -0.040989
vn 0.110455 0.993881 0.000000
vn -0.005522 0.000000 -0.999985
vn -0.005522 0.000000 -0.999985
vn 0.191186 -0.981554 0.000000
vn -0.005108 -0.999987 0.000000
vn -0.005108 -0.999987 0.000000
vn -0.005108 -0.999987 0.000000
vn -0.005522 0.000000 0.999985
vn -0.005523 0.000000 0.999985
vn -0.005108 0.999987 0.000000
vn -0.005108 0.999987 0.000000
vn -0.005108 0.999987 0.000000
vn -0.005108 0.999987 0.000000
vn -0.005522 0.000000 -0.999985
vn -0.005522 0.000000 -0.999985
vn -0.005108 -0.999987 0.000000
vn -0.930547 0.366174 0.000000
vn -0.930547 0.366174 0.000000
vn -0.930547 0.366174 0.000000
vn -0.930547 0.366173 0.000000
vn -0.002239 0.000294 0.999997
vn -0.003148 0.001036 0.999995
vn -0.002432 0.000451 0.999997
vn -0.003627 0.001427 0.999992
vn 0.991502 -0.130088 0.000000
vn 0.991502 -0.130088 0.000000
vn 0.991502 -0.130088 0.000000
vn 0.991502 -0.130088 0.000000
vn -0.004157 0.000545 -0.999991
vn -0.004515 0.000837 -0.999990
vn -0.005844 0.001923 -0.999981
vn -0.006734 0.002650 -0.999974
vn -0.006753 0.999977 0.000000
vn -0.006746 0.999977 0.000018
vn -0.006723 0.999977 0.000082
vn -0.006709 0.999978 0.000119
vn 0.056829 0.066186 0.996188
vn 0.057999 0.056027 0.996743
vn 0.070715 -0.058471 0.995781
vn 0.072182 -0.072202 0.994775
vn -0.043025 -0.999074 0.000000
vn -0.043038 -0.999074 0.000027
vn -0.043066 -0.999072 0.000090
vn -0.043092 -0.999071 0.000145
vn 0.055265 0.069043 -0.996082
vn 0.067925 -0.043325 -0.996749
vn 0.056331 0.059852 -0.996617
vn 0.069247 -0.055489 -0.996055
vn -0.999256 0.038577 0.000000
vn -0.999302 0.037326 0.001240
vn -0.999302 0.037336 0.001230
vn -0.999375 0.035186 0.003361
vn 0.085984 0.163111 0.982854
vn 0.029536 0.144229 0.989103
vn -0.102934 0.098031 0.989846
vn -0.133325 0.087056 0.987241
vn 0.995639 0.093292 0.000000
vn 0.995375 0.095971 -0.004330
vn 0.995038 0.099054 -0.009316
vn 0.994401 0.104193 -0.017639
vn 0.081330 0.158287 -0.984038
vn -0.094255 0.097410 -0.990771
vn 0.030814 0.141237 -0.989496
vn -0.122977 0.087019 -0.988587
vn 0.000000 -1.000000 0.000000
vn 0.000000 -1.000000 0.000000
vn 0.000000 -1.000000 0.000000
vn 0.000000 -1.000000 0.000000
vn 0.000000 0.000000 -1.000000
vn 0.000000 0.000000 -1.000000
vn 0.000000 0.000000 -1.000000
vn 0.000000 0.000000 -1.000000
vn 0.000000 1.000000 0.000000
vn 0.000000 1.000000 0.000000
vn 0.000000 1.000000 0.000000
vn 0.000000 1.000000 0.000000
vn 0.000000 -1.000000 0.000000
vn 0.000000 -1.000000 0.000000
vn 0.000000 -1.000000 0.000000
vn 0.000000 -1.000000 0.000000
vn 0.000000 1.000000 0.000000
vn 0.000000 1.000000 0.000000
vn 0.000000 1.000000 0.000000
vn 0.000000 1.000000 0.000000
vn 0.000000 -1.000000 0.000000
vn 0.000000 -1.000000 0.000000
vn 0.000000 -1.000000 0.000000
vn 0.000000 -1.000000 0.000000
vn 0.000000 1.000000 0.000000
vn 0.000000 1.000000 0.000000
vn 0.000000 1.000000 0.000000
vn 0.000000 1.000000 0.000000
vn 0.000000 0.000000 1.000000
vn 0.000000 0.000000 1.000000
vn 0.000000 0.000000 1.000000
vn 0.000000 0.000000 1.000000
f 48/63/1 41/55/2 52/68/3
f 52/68/3 41/55/2 51/66/4
f 45/60/5 46/61/6 55/71/7
f 55/71/7 46/61/6 54/70/8
f 44/59/9 45/60/10 56/72/11
f 56/72/11 45/60/10 55/71/12
f 44/59/13 56/72/14 43/58/15
f 43/58/15 56/72/14 49/64/16
f 81/106/17 82/103/18 84/105/19
f 84/105/19 82/103/18 83/104/20
f 7/13/21 30/39/22 5/14/23
f 5/14/23 30/39/22 21/27/24
f 28/36/25 29/38/26 9/16/27
f 9/16/27 29/38/26 8/11/28
f 8/11/29 6/12/30 9/16/31
f 9/16/31 6/12/30 11/17/32
f 6/12/33 22/30/34 11/17/35
f 11/17/35 22/30/34 23/31/36
f 4/4/37 2/2/38 12/18/39
f 12/18/39 2/2/38 10/15/40
f 27/35/41 28/36/42 13/20/43
f 13/20/43 28/36/42 9/16/44
f 9/16/45 11/17/46 13/20/47
f 13/20/47 11/17/46 15/21/48
f 11/17/49 23/31/50 15/21/51
f 15/21/51 23/31/50 24/32/52
f 12/18/53 10/15/54 16/22/55
f 16/22/55 10/15/54 14/19/56
f 27/35/57 13/20/58 26/34/59
f 26/34/59 13/20/58 17/24/60
f 13/20/61 15/21/62 17/24/63
f 17/24/63 15/21/62 19/25/64
f 24/32/65 25/33/66 15/21/67
f 15/21/67 25/33/66 19/25/68
f 16/22/69 14/19/70 20/26/71
f 20/26/71 14/19/70 18/23/72
f 22/30/34 32/44/73 23/31/36
f 23/31/36 32/44/73 33/45/74
f 24/32/52 23/31/50 34/46/75
f 34/46/75 23/31/50 33/45/76
f 25/33/66 24/32/65 35/47/77
f 35/47/77 24/32/65 34/46/78
f 85/108/79 86/107/80 81/106/17
f 81/106/17 86/107/80 82/103/18
f 37/49/81 27/35/57 36/48/82
f 36/48/82 27/35/57 26/34/59
f 37/49/83 38/50/84 27/35/41
f 27/35/41 38/50/84 28/36/42
f 38/50/85 39/52/86 28/36/25
f 28/36/25 39/52/86 29/38/26
f 43/58/15 49/64/16 42/57/87
f 42/57/87 49/64/16 50/65/88
f 21/27/24 30/39/22 31/41/89
f 31/41/89 30/39/22 40/53/90
f 48/63/91 52/68/92 47/62/93
f 47/62/93 52/68/92 53/69/94
f 33/45/74 32/44/73 12/18/95
f 12/18/95 32/44/73 4/4/96
f 34/46/75 33/45/76 16/22/97
f 16/22/97 33/45/76 12/18/98
f 34/46/78 16/22/99 35/47/77
f 35/47/77 16/22/99 20/26/100
f 87/109/101 86/107/80 88/110/102
f 88/110/102 86/107/80 85/108/79
f 37/49/81 36/48/82 14/19/103
f 14/19/103 36/48/82 18/23/104
f 10/15/105 38/50/84 14/19/106
f 14/19/106 38/50/84 37/49/83
f 2/2/107 39/52/86 10/15/108
f 10/15/108 39/52/86 38/50/85
f 42/57/87 50/65/88 41/56/109
f 41/56/109 50/65/88 51/67/110
f 31/41/89 40/53/90 3/3/111
f 3/3/111 40/53/90 1/1/112
f 40/54/113 42/57/87 1/9/114
f 1/9/114 42/57/87 41/56/109
f 43/58/15 42/57/87 30/40/115
f 30/40/115 42/57/87 40/54/113
f 44/59/13 43/58/15 7/7/116
f 7/7/116 43/58/15 30/40/115
f 5/5/117 45/60/10 7/7/118
f 7/7/118 45/60/10 44/59/9
f 46/61/6 45/60/5 21/28/119
f 21/28/119 45/60/5 5/5/120
f 31/42/121 47/62/93 21/28/119
f 21/28/119 47/62/93 46/61/6
f 3/3/122 48/63/91 31/42/121
f 31/42/121 48/63/91 47/62/93
f 1/1/123 41/55/2 3/3/124
f 3/3/124 41/55/2 48/63/1
f 50/65/88 49/64/16 58/74/125
f 58/74/125 49/64/16 57/73/126
f 50/65/88 58/74/125 51/67/110
f 51/67/110 58/74/125 59/76/127
f 52/68/3 51/66/4 60/77/128
f 60/77/128 51/66/4 59/75/129
f 52/68/92 60/77/130 53/69/94
f 53/69/94 60/77/130 61/78/131
f 53/69/94 61/78/131 54/70/8
f 54/70/8 61/78/131 62/79/132
f 55/71/7 54/70/8 63/80/133
f 63/80/133 54/70/8 62/79/132
f 56/72/11 55/71/12 64/81/134
f 64/81/134 55/71/12 63/80/135
f 49/64/16 56/72/14 57/73/126
f 57/73/126 56/72/14 64/81/136
f 58/74/125 57/73/126 66/83/137
f 66/83/137 57/73/126 65/82/138
f 58/74/125 66/83/137 59/76/127
f 59/76/127 66/83/137 67/85/139
f 60/77/128 59/75/129 68/86/140
f 68/86/140 59/75/129 67/84/141
f 60/77/130 68/86/142 61/78/131
f 61/78/131 68/86/142 69/87/143
f 63/80/133 62/79/132 71/89/144
f 71/89/144 62/79/132 70/88/145
f 64/81/134 63/80/135 72/90/146
f 72/90/146 63/80/135 71/89/147
f 57/73/126 64/81/136 65/82/138
f 65/82/138 64/81/136 72/90/148
f 66/83/137 65/82/138 39/51/149
f 39/51/149 65/82/138 29/37/150
f 66/83/137 39/51/149 67/85/139
f 67/85/139 39/51/149 2/10/151
f 68/86/140 67/84/141 4/4/152
f 4/4/152 67/84/141 2/2/153
f 69/87/143 68/86/142 32/43/154
f 32/43/154 68/86/142 4/4/155
f 69/87/143 32/43/154 70/88/145
f 70/88/145 32/43/154 22/29/156
f 70/88/145 22/29/156 71/89/144
f 71/89/144 22/29/156 6/6/157
f 72/90/146 71/89/147 8/8/158
f 8/8/158 71/89/147 6/6/159
f 65/82/138 72/90/148 29/37/150
f 29/37/150 72/90/148 8/8/160
f 46/61/161 47/62/162 73/91/163
f 73/91/163 47/62/162 74/92/164
f 53/69/165 75/93/166 47/62/167
f 47/62/167 75/93/166 74/92/168
f 53/69/169 54/70/170 75/93/171
f 75/93/171 54/70/170 76/94/172
f 54/70/173 46/61/174 76/94/175
f 76/94/175 46/61/174 73/91/176
f 73/91/177 74/92/178 77/95/179
f 77/95/179 74/92/178 78/96/180
f 74/92/181 75/93/182 78/96/183
f 78/96/183 75/93/182 79/97/184
f 75/93/185 76/94/186 79/97/187
f 79/97/187 76/94/186 80/98/188
f 73/91/189 77/95/190 76/94/191
f 76/94/191 77/95/190 80/98/192
f 61/78/193 79/100/194 62/79/195
f 62/79/195 79/100/194 80/99/196
f 61/78/197 69/87/198 79/100/199
f 79/100/199 69/87/198 78/101/200
f 69/87/201 70/88/202 78/101/203
f 78/101/203 70/88/202 77/102/204
f 62/79/205 80/99/206 70/88/207
f 70/88/207 80/99/206 77/102/208
f 26/34/209 17/24/210 82/103/211
f 82/103/211 17/24/210 83/104/212
f 17/24/213 19/25/214 83/104/215
f 83/104/215 19/25/214 84/105/216
f 19/25/217 25/33/218 84/105/219
f 84/105/219 25/33/218 81/106/220
f 36/48/221 26/34/222 86/107/223
f 86/107/223 26/34/222 82/103/224
f 25/33/225 35/47/226 81/106/227
f 81/106/227 35/47/226 85/108/228
f 18/23/229 36/48/230 87/109/231
f 87/109/231 36/48/230 86/107/232
f 35/47/233 20/26/234 85/108/235
f 85/108/235 20/26/234 88/110/236
f 20/26/237 18/23/238 88/110/239
f 88/110/239 18/23/238 87/109/240
