# This file uses centimeters as units for non-parametric coordinates.

v -0.500000 -0.003814 0.500000
v 0.500000 -0.003814 0.500000
v -0.478601 7.265647 0.478601
v 0.478601 7.265651 0.478601
v -0.478601 7.265647 -0.478601
v 0.478601 7.265651 -0.478601
v -0.500000 -0.003814 -0.500000
v 0.500000 -0.003814 -0.500000
v -0.500000 6.482493 0.500000
v 0.500000 6.482497 0.500000
v 0.500000 6.482497 -0.500000
v -0.500000 6.482493 -0.500000
v -0.500000 5.132148 0.500000
v 0.500000 5.132151 0.500000
v 0.500000 5.132151 -0.500000
v -0.500000 5.132148 -0.500000
v -0.500000 3.607995 0.500000
v 0.500000 3.607997 0.500000
v 0.500000 3.607996 -0.500000
v -0.500000 3.607995 -0.500000
v -0.500000 2.454701 0.500000
v 0.500000 2.454703 0.500000
v 0.500000 2.454702 -0.500000
v -0.500000 2.454701 -0.500000
v 1.307566 5.337993 0.380541
v 1.307566 5.337993 -0.380541
v 0.889083 6.276655 -0.380541
v 0.889083 6.276655 0.380541
v 1.808064 5.939077 0.318474
v 1.808064 5.939077 -0.318474
v 1.247580 6.591481 -0.318474
v 1.247580 6.591481 0.318474
v 2.156611 7.050744 0.318474
v 2.156611 7.050744 -0.318474
v 1.314844 7.227386 -0.318474
v 1.314844 7.227386 0.318474
v 1.681845 8.104488 0.189399
v 1.681845 8.104488 -0.189399
v 1.181239 8.209538 -0.189399
v 1.181239 8.209538 0.189399
v -1.070248 2.543838 -0.422711
v -1.070248 2.543838 0.422711
v -1.070248 3.518857 0.422711
v -1.070248 3.518857 -0.422711
v -1.792097 2.931465 -0.384823
v -1.792097 2.931465 0.384823
v -1.375966 3.715505 0.384823
v -1.375966 3.715505 -0.384823
v -2.296811 3.964828 -0.324023
v -2.296811 3.964828 0.324023
v -1.566198 4.122288 0.324023
v -1.566198 4.122288 -0.324023
v -2.205281 5.148164 -0.253099
v -2.205281 5.148165 0.253099
v -1.622675 5.185414 0.253099
v -1.622675 5.185414 -0.253099
v -1.988171 6.488724 -0.196634
v -1.988171 6.488724 0.196634
v -1.566288 6.322211 0.196634
v -1.566288 6.322211 -0.196634
v -0.376592 8.244831 0.376592
v 0.376592 8.244834 0.376592
v 0.376592 8.244834 -0.376592
v -0.376592 8.244831 -0.376592
vt 0.375000 0.000000
vt 0.625000 0.000000
vt 0.375000 0.250000
vt 0.625000 0.250000
vt 0.375000 0.500000
vt 0.625000 0.500000
vt 0.375000 0.750000
vt 0.625000 0.750000
vt 0.375000 1.000000
vt 0.625000 1.000000
vt 0.875000 0.000000
vt 0.875000 0.250000
vt 0.125000 0.000000
vt 0.125000 0.250000
vt 0.375000 0.202470
vt 0.625000 0.202470
vt 0.625000 0.547530
vt 0.875000 0.202470
vt 0.125000 0.202470
vt 0.375000 0.547530
vt 0.375000 0.160319
vt 0.625000 0.160319
vt 0.625000 0.589681
vt 0.875000 0.160319
vt 0.125000 0.160319
vt 0.375000 0.589681
vt 0.375000 0.112743
vt 0.625000 0.112743
vt 0.625000 0.637257
vt 0.875000 0.112743
vt 0.125000 0.112743
vt 0.375000 0.637257
vt 0.375000 0.076743
vt 0.625000 0.076743
vt 0.625000 0.673258
vt 0.875000 0.076743
vt 0.125000 0.076743
vt 0.375000 0.673258
vt 0.625000 0.160319
vt 0.875000 0.160319
vt 0.875000 0.202470
vt 0.625000 0.202470
vt 0.625000 0.160319
vt 0.875000 0.160319
vt 0.875000 0.202470
vt 0.625000 0.202470
vt 0.625000 0.160319
vt 0.875000 0.160319
vt 0.875000 0.202470
vt 0.625000 0.202470
vt 0.625000 0.160319
vt 0.875000 0.160319
vt 0.875000 0.202470
vt 0.625000 0.202470
vt 0.125000 0.076743
vt 0.375000 0.076743
vt 0.375000 0.112743
vt 0.125000 0.112743
vt 0.125000 0.076743
vt 0.375000 0.076743
vt 0.375000 0.112743
vt 0.125000 0.112743
vt 0.125000 0.076743
vt 0.375000 0.076743
vt 0.375000 0.112743
vt 0.125000 0.112743
vt 0.125000 0.076743
vt 0.375000 0.076743
vt 0.375000 0.112743
vt 0.125000 0.112743
vt 0.125000 0.076743
vt 0.375000 0.076743
vt 0.375000 0.112743
vt 0.125000 0.112743
vt 0.375000 0.250000
vt 0.625000 0.250000
vt 0.625000 0.500000
vt 0.375000 0.500000
vn -0.000000 0.009919 0.999951
vn -0.000000 0.009765 0.999952
vn -0.000000 0.027314 0.999627
vn -0.000000 0.027314 0.999627
vn -0.000004 1.000000 0.000000
vn -0.000004 1.000000 0.000000
vn -0.000004 1.000000 0.000000
vn -0.000004 1.000000 0.000000
vn -0.000000 0.027314 -0.999627
vn -0.000000 0.027314 -0.999627
vn -0.000000 0.009765 -0.999952
vn -0.000000 0.009919 -0.999951
vn 0.000000 -1.000000 0.000000
vn 0.000000 -1.000000 0.000000
vn 0.000000 -1.000000 0.000000
vn 0.000000 -1.000000 0.000000
vn 0.999627 0.027314 0.000000
vn 0.999627 0.027314 0.000000
vn 0.999627 0.027314 0.000000
vn 0.999627 0.027314 0.000000
vn -0.999951 0.009919 0.000000
vn -0.999952 0.009765 0.000000
vn -0.999627 0.027314 0.000000
vn -0.999627 0.027314 0.000000
vn 0.000000 0.000000 1.000000
vn 0.000000 0.000000 1.000000
vn 0.205373 0.978684 0.000000
vn 0.205373 0.978684 0.000000
vn 0.205373 0.978684 0.000000
vn 0.205373 0.978684 0.000000
vn 0.000000 0.000000 -1.000000
vn 0.000000 0.000000 -1.000000
vn -1.000000 0.000000 0.000000
vn -1.000000 0.000000 0.000000
vn 0.000000 0.000000 1.000000
vn 0.000000 0.000000 1.000000
vn 1.000000 0.000000 0.000000
vn 1.000000 0.000000 0.000000
vn 1.000000 0.000000 0.000000
vn 1.000000 0.000000 0.000000
vn 0.000000 0.000000 -1.000000
vn 0.000000 0.000000 -1.000000
vn -1.000000 0.000000 0.000000
vn -1.000000 0.000000 0.000000
vn 0.000000 0.000000 1.000000
vn 0.000000 0.000000 1.000000
vn 1.000000 0.000000 0.000000
vn 1.000000 0.000000 0.000000
vn 0.000000 0.000000 -1.000000
vn 0.000000 0.000000 -1.000000
vn 0.367130 0.930170 0.000000
vn 0.367130 0.930170 0.000000
vn 0.367130 0.930170 0.000000
vn 0.367130 0.930170 0.000000
vn 0.000000 0.000000 1.000000
vn 0.000000 0.000000 1.000000
vn 1.000000 0.000000 0.000000
vn 1.000000 0.000000 0.000000
vn 0.000000 0.000000 -1.000000
vn 0.000000 0.000000 -1.000000
vn -1.000000 0.000000 0.000000
vn -1.000000 -0.000000 0.000000
vn -1.000000 -0.000000 0.000000
vn -1.000000 -0.000000 0.000000
vn 0.246995 -0.969017 0.000000
vn 0.246995 -0.969017 0.000000
vn 0.246995 -0.969017 0.000000
vn 0.246995 -0.969017 0.000000
vn 0.293506 0.000000 -0.955957
vn 0.228309 0.023974 -0.973294
vn 0.161383 0.048023 -0.985723
vn 0.131448 0.058603 -0.989589
vn 0.467634 0.883922 0.000000
vn 0.467634 0.883922 0.000000
vn 0.467634 0.883922 0.000000
vn 0.467633 0.883923 0.000000
vn 0.293506 0.000000 0.955957
vn 0.161383 0.048023 0.985723
vn 0.228309 0.023974 0.973294
vn 0.131448 0.058603 0.989590
vn 0.768476 -0.639879 0.000000
vn 0.768476 -0.639879 0.000000
vn 0.768476 -0.639879 0.000000
vn 0.768476 -0.639879 0.000000
vn 0.080451 0.035867 -0.996113
vn 0.088008 0.056735 -0.994503
vn 0.083827 0.045178 -0.995456
vn 0.097855 0.084068 -0.991644
vn -0.659858 0.751390 0.000000
vn -0.659858 0.751390 0.000000
vn -0.659858 0.751390 0.000000
vn -0.659858 0.751390 0.000000
vn 0.080451 0.035867 0.996113
vn 0.083827 0.045178 0.995456
vn 0.088008 0.056735 0.994503
vn 0.097855 0.084068 0.991644
vn 0.954198 -0.299175 0.000000
vn 0.954198 -0.299175 0.000000
vn 0.954198 -0.299175 0.000000
vn 0.954198 -0.299175 0.000000
vn 0.000000 0.000000 -1.000000
vn 0.000000 0.000000 -1.000000
vn 0.000000 0.000000 -1.000000
vn 0.000000 0.000000 -1.000000
vn -0.994452 0.105190 0.000000
vn -0.994452 0.105190 0.000000
vn -0.994452 0.105190 0.000000
vn -0.994452 0.105190 0.000000
vn 0.000000 0.000000 1.000000
vn 0.000000 0.000000 1.000000
vn 0.000000 0.000000 1.000000
vn 0.000000 0.000000 1.000000
vn 0.911733 0.410783 0.000000
vn 0.911733 0.410783 0.000000
vn 0.911733 0.410783 0.000000
vn 0.911733 0.410783 0.000000
vn 0.028121 0.134008 -0.990581
vn 0.028121 0.134008 -0.990581
vn 0.028121 0.134008 -0.990581
vn 0.028121 0.134008 -0.990581
vn -0.990874 -0.134792 0.000000
vn -0.990874 -0.134792 0.000000
vn -0.990874 -0.134792 0.000000
vn -0.990874 -0.134792 0.000000
vn 0.028121 0.134008 0.990581
vn 0.028121 0.134008 0.990581
vn 0.028121 0.134008 0.990581
vn 0.028121 0.134008 0.990581
vn -0.154437 -0.988003 0.000000
vn -0.154437 -0.988003 0.000000
vn -0.154437 -0.988003 0.000000
vn -0.154437 -0.988003 0.000000
vn -0.134308 0.000000 0.990940
vn -0.134308 0.000000 0.990940
vn -0.134308 0.000000 0.990940
vn -0.134308 0.000000 0.990940
vn -0.154438 0.988003 0.000000
vn -0.154438 0.988003 0.000000
vn -0.154438 0.988003 0.000000
vn -0.154438 0.988003 0.000000
vn -0.134308 0.000000 -0.990940
vn -0.134308 0.000000 -0.990940
vn -0.134308 0.000000 -0.990940
vn -0.134308 0.000000 -0.990940
vn -0.473096 -0.881011 0.000001
vn -0.473096 -0.881011 0.000001
vn -0.473096 -0.881011 0.000001
vn -0.473096 -0.881011 0.000000
vn -0.052415 0.000000 0.998625
vn -0.067947 0.019159 0.997505
vn -0.057782 0.006615 0.998307
vn -0.091888 0.048770 0.994574
vn 0.540981 0.841035 0.000000
vn 0.540980 0.841035 0.000000
vn 0.540980 0.841035 0.000000
vn 0.540980 0.841036 0.000000
vn -0.052415 0.000000 -0.998625
vn -0.057782 0.006615 -0.998307
vn -0.067947 0.019159 -0.997505
vn -0.091888 0.048770 -0.994574
vn -0.898551 -0.438869 0.000000
vn -0.898551 -0.438869 0.000000
vn -0.898551 -0.438869 0.000000
vn -0.898551 -0.438870 0.000000
vn -0.057607 0.030575 0.997871
vn -0.051807 0.051857 0.997310
vn -0.052385 0.049741 0.997387
vn -0.028985 0.134488 0.990491
vn 0.905842 0.423615 0.000000
vn 0.905842 0.423615 0.000000
vn 0.905842 0.423615 0.000000
vn 0.905843 0.423614 0.000000
vn -0.057607 0.030575 -0.997871
vn -0.052385 0.049742 -0.997387
vn -0.051807 0.051857 -0.997310
vn -0.028985 0.134488 -0.990491
vn -0.997022 0.077119 0.000000
vn -0.997022 0.077119 -0.000000
vn -0.997022 0.077119 -0.000000
vn -0.997022 0.077119 -0.000000
vn -0.013111 0.060834 0.998062
vn -0.011064 0.062105 0.998008
vn -0.008191 0.063889 0.997923
vn -0.004241 0.066340 0.997788
vn 0.998592 0.053049 0.000000
vn 0.998592 0.053049 0.000000
vn 0.998592 0.053049 0.000000
vn 0.998592 0.053049 0.000000
vn -0.013111 0.060834 -0.998062
vn -0.008192 0.063889 -0.997923
vn -0.011064 0.062105 -0.998008
vn -0.004242 0.066340 -0.997788
vn -0.987138 0.159871 0.000000
vn -0.987138 0.159871 0.000000
vn -0.987138 0.159871 0.000000
vn -0.987138 0.159871 0.000000
vn -0.003182 0.049766 0.998756
vn 0.010845 0.042146 0.999053
vn 0.001208 0.047382 0.998876
vn 0.015612 0.039554 0.999095
vn 0.998772 -0.049540 0.000000
vn 0.998772 -0.049540 0.000000
vn 0.998772 -0.049540 0.000000
vn 0.998772 -0.049540 0.000000
vn -0.003182 0.049766 -0.998756
vn 0.001208 0.047382 -0.998876
vn 0.010845 0.042146 -0.999053
vn 0.015612 0.039554 -0.999095
vn -0.000000 0.103617 0.994617
vn -0.000000 0.103617 0.994617
vn -0.000000 0.103617 0.994617
vn -0.000000 0.103616 0.994617
vn 0.994617 0.103617 0.000000
vn 0.994617 0.103617 0.000000
vn 0.994617 0.103617 0.000000
vn 0.994617 0.103617 0.000000
vn -0.000000 0.103617 -0.994617
vn -0.000000 0.103617 -0.994617
vn -0.000000 0.103617 -0.994617
vn -0.000000 0.103616 -0.994617
vn -0.994617 0.103617 0.000000
vn -0.994617 0.103617 0.000000
vn -0.994617 0.103617 0.000000
vn -0.994617 0.103617 0.000000
f 9/15/1 10/16/2 3/3/3
f 3/3/3 10/16/2 4/4/4
f 61/75/5 62/76/6 64/78/7
f 64/78/7 62/76/6 63/77/8
f 5/5/9 6/6/10 12/20/11
f 12/20/11 6/6/10 11/17/12
f 7/7/13 8/8/14 1/9/15
f 1/9/15 8/8/14 2/10/16
f 10/16/17 11/18/18 4/4/19
f 4/4/19 11/18/18 6/12/20
f 12/19/21 9/15/22 5/14/23
f 5/14/23 9/15/22 3/3/24
f 13/21/25 14/22/26 9/15/1
f 9/15/1 14/22/26 10/16/2
f 37/51/27 38/52/28 40/54/29
f 40/54/29 38/52/28 39/53/30
f 12/20/11 11/17/12 16/26/31
f 16/26/31 11/17/12 15/23/32
f 16/25/33 13/21/34 12/19/21
f 12/19/21 13/21/34 9/15/22
f 17/27/35 18/28/36 13/21/25
f 13/21/25 18/28/36 14/22/26
f 18/28/37 19/30/38 14/22/39
f 14/22/39 19/30/38 15/24/40
f 16/26/31 15/23/32 20/32/41
f 20/32/41 15/23/32 19/29/42
f 20/31/43 17/27/44 16/25/33
f 16/25/33 17/27/44 13/21/34
f 21/33/45 22/34/46 17/27/35
f 17/27/35 22/34/46 18/28/36
f 22/34/47 23/36/48 18/28/37
f 18/28/37 23/36/48 19/30/38
f 20/32/41 19/29/42 24/38/49
f 24/38/49 19/29/42 23/35/50
f 57/71/51 58/72/52 60/74/53
f 60/74/53 58/72/52 59/73/54
f 1/1/55 2/2/56 21/33/45
f 21/33/45 2/2/56 22/34/46
f 2/2/57 8/11/58 22/34/47
f 22/34/47 8/11/58 23/36/48
f 24/38/49 23/35/50 7/7/59
f 7/7/59 23/35/50 8/8/60
f 7/13/61 1/1/62 24/37/63
f 24/37/63 1/1/62 21/33/64
f 14/22/65 15/24/66 25/39/67
f 25/39/67 15/24/66 26/40/68
f 11/18/69 27/41/70 15/24/71
f 15/24/71 27/41/70 26/40/72
f 11/18/73 10/16/74 27/41/75
f 27/41/75 10/16/74 28/42/76
f 10/16/77 14/22/78 28/42/79
f 28/42/79 14/22/78 25/39/80
f 25/39/81 26/40/82 29/43/83
f 29/43/83 26/40/82 30/44/84
f 26/40/85 27/41/86 30/44/87
f 30/44/87 27/41/86 31/45/88
f 27/41/89 28/42/90 31/45/91
f 31/45/91 28/42/90 32/46/92
f 25/39/93 29/43/94 28/42/95
f 28/42/95 29/43/94 32/46/96
f 29/43/97 30/44/98 33/47/99
f 33/47/99 30/44/98 34/48/100
f 30/44/101 31/45/102 34/48/103
f 34/48/103 31/45/102 35/49/104
f 31/45/105 32/46/106 35/49/107
f 35/49/107 32/46/106 36/50/108
f 29/43/109 33/47/110 32/46/111
f 32/46/111 33/47/110 36/50/112
f 33/47/113 34/48/114 37/51/115
f 37/51/115 34/48/114 38/52/116
f 34/48/117 35/49/118 38/52/119
f 38/52/119 35/49/118 39/53/120
f 35/49/121 36/50/122 39/53/123
f 39/53/123 36/50/122 40/54/124
f 33/47/125 37/51/126 36/50/127
f 36/50/127 37/51/126 40/54/128
f 24/37/129 21/33/130 41/55/131
f 41/55/131 21/33/130 42/56/132
f 21/33/133 17/27/134 42/56/135
f 42/56/135 17/27/134 43/57/136
f 17/27/137 20/31/138 43/57/139
f 43/57/139 20/31/138 44/58/140
f 20/31/141 24/37/142 44/58/143
f 44/58/143 24/37/142 41/55/144
f 41/55/145 42/56/146 45/59/147
f 45/59/147 42/56/146 46/60/148
f 42/56/149 43/57/150 46/60/151
f 46/60/151 43/57/150 47/61/152
f 43/57/153 44/58/154 47/61/155
f 47/61/155 44/58/154 48/62/156
f 41/55/157 45/59/158 44/58/159
f 44/58/159 45/59/158 48/62/160
f 45/59/161 46/60/162 49/63/163
f 49/63/163 46/60/162 50/64/164
f 46/60/165 47/61/166 50/64/167
f 50/64/167 47/61/166 51/65/168
f 47/61/169 48/62/170 51/65/171
f 51/65/171 48/62/170 52/66/172
f 45/59/173 49/63/174 48/62/175
f 48/62/175 49/63/174 52/66/176
f 49/63/177 50/64/178 53/67/179
f 53/67/179 50/64/178 54/68/180
f 50/64/181 51/65/182 54/68/183
f 54/68/183 51/65/182 55/69/184
f 51/65/185 52/66/186 55/69/187
f 55/69/187 52/66/186 56/70/188
f 49/63/189 53/67/190 52/66/191
f 52/66/191 53/67/190 56/70/192
f 53/67/193 54/68/194 57/71/195
f 57/71/195 54/68/194 58/72/196
f 55/69/197 59/73/198 54/68/199
f 54/68/199 59/73/198 58/72/200
f 55/69/201 56/70/202 59/73/203
f 59/73/203 56/70/202 60/74/204
f 56/70/205 53/67/206 60/74/207
f 60/74/207 53/67/206 57/71/208
f 3/3/209 4/4/210 61/75/211
f 61/75/211 4/4/210 62/76/212
f 4/4/213 6/6/214 62/76/215
f 62/76/215 6/6/214 63/77/216
f 6/6/217 5/5/218 63/77/219
f 63/77/219 5/5/218 64/78/220
f 5/5/221 3/3/222 64/78/223
f 64/78/223 3/3/222 61/75/224
